<svg width="26" height="18" viewBox="0 0 26 18" fill="none" xmlns="http://www.w3.org/2000/svg">
<g clip-path="url(#clip0_570_48)">
<path d="M6.74219 0.0200439C5.53711 0.0860439 4.44531 0.246044 3.45117 0.502044C3.04492 0.608044 2.36914 0.838044 2.13867 0.950044L1.95703 1.03804V1.44804V1.85604L1.89258 1.87004C1.78125 1.89604 1.26758 2.07404 1.09375 2.15004L0.921875 2.22404V10.112V17.998L1.08398 17.928C1.875 17.578 2.91016 17.312 4.17383 17.132C5.68945 16.916 7.50781 16.87 8.96875 17.01C10.4414 17.15 12.0254 17.448 13.2129 17.808L13.4414 17.878L13.5449 17.832C13.8242 17.706 14.5527 17.49 15.1367 17.362C16.9805 16.956 19.1504 16.83 21.1953 17.012C22.6445 17.14 24.3633 17.466 25.5313 17.834C25.6875 17.884 25.8379 17.93 25.8691 17.94L25.9219 17.958V10.08V2.20204L25.7266 2.14004C25.6191 2.10604 25.3887 2.04004 25.2129 1.99204L24.8965 1.90604L24.8867 1.45804L24.877 1.01204L24.7793 0.974044C24.2227 0.762044 22.9844 0.448044 22.0859 0.290044C20.9082 0.0840439 20.0449 0.0100439 18.8418 0.0100439C17.8613 0.0120439 17.25 0.0500439 16.4102 0.160044C15.4414 0.290044 14.3926 0.538044 13.7012 0.802044C13.5527 0.860044 13.4238 0.906044 13.4121 0.906044C13.4023 0.904044 13.2207 0.854044 13.0117 0.790044C11.7871 0.424044 10.3633 0.162044 8.98047 0.0480439C8.53516 0.0120439 7.20117 -0.00395608 6.74219 0.0200439ZM8.64649 0.560044C9.70117 0.628044 10.6875 0.770044 11.7129 1.00204C12.3262 1.14004 13.1113 1.35604 13.1543 1.40004C13.1641 1.40804 13.166 4.70204 13.1582 8.72005C13.1445 15.41 13.1406 16.022 13.1113 16.014C11.7305 15.608 10.5137 15.378 9.04492 15.246C8.48242 15.196 6.67774 15.196 5.98047 15.246C4.73242 15.338 3.79492 15.466 2.9082 15.668C2.68945 15.718 2.50391 15.76 2.49609 15.76C2.49023 15.76 2.48438 12.524 2.48438 8.57005C2.48438 1.74404 2.48633 1.38004 2.51758 1.36404C2.6582 1.28804 3.50391 1.03404 3.95898 0.930044C4.83203 0.730044 5.60742 0.628044 6.81055 0.554044C7.06641 0.538044 8.36914 0.542044 8.64649 0.560044ZM19.9492 0.570044C21.3418 0.664044 22.916 0.948044 24.1348 1.32404L24.3496 1.39004L24.3555 8.59205L24.3594 15.794L24.1797 15.756C23.0742 15.52 21.8281 15.35 20.4824 15.248C19.9199 15.206 18.4863 15.188 17.9336 15.218C16.4316 15.298 15.0801 15.528 14 15.888L13.6758 15.996L13.6797 8.68605L13.6855 1.37604L13.7832 1.33804C13.8379 1.31604 13.8965 1.29404 13.9141 1.28804C13.9473 1.27804 13.9492 1.57004 13.9531 7.16205L13.959 13.046L14.3359 12.722L14.7129 12.396L14.7754 12.446C14.8105 12.474 14.9883 12.622 15.1699 12.776L15.502 13.058L15.5078 6.95805C15.5117 2.10404 15.5176 0.856044 15.5371 0.850044C15.5859 0.832044 16.252 0.720044 16.5469 0.682044C16.8926 0.638044 17.4316 0.586044 17.8164 0.562044C18.2695 0.534044 19.4902 0.538044 19.9492 0.570044Z" fill="#3F0D12"/>
<path d="M6.87891 3.48205C6.21485 3.51205 5.59571 3.57005 4.98438 3.66205C4.53321 3.72805 4.32617 3.76805 4.30664 3.78805C4.29297 3.80205 4.37891 4.30005 4.39649 4.30005C4.40235 4.30005 4.47461 4.28805 4.55469 4.27205C4.99805 4.18405 5.76367 4.09005 6.44922 4.03605C6.95117 3.99605 8.47071 4.00405 8.97656 4.04605C9.51563 4.09405 9.9668 4.14805 10.4395 4.22205C10.6523 4.25605 10.8301 4.28005 10.834 4.27605C10.8398 4.27005 10.9219 3.80405 10.9219 3.77405C10.9219 3.75805 10.8574 3.74605 10.4336 3.68205C9.17969 3.49405 8.05469 3.43005 6.87891 3.48205Z" fill="#3F0D12"/>
<path d="M6.71875 4.81995C6.0293 4.85795 5.29102 4.93795 4.68555 5.03995C4.49414 5.07395 4.33008 5.09995 4.32031 5.09995C4.30859 5.09995 4.30078 5.12395 4.30078 5.15395C4.30273 5.24995 4.38867 5.62995 4.4082 5.62595C4.76758 5.56395 5.39453 5.47195 5.67773 5.43995C6.33789 5.36995 6.5625 5.35595 7.41016 5.34595C8.24805 5.33595 8.69922 5.34995 9.29102 5.40995C9.44141 5.42595 9.56641 5.43595 9.56836 5.43395C9.57031 5.42995 9.58203 5.34795 9.5918 5.24995C9.60352 5.14995 9.61719 5.03395 9.62305 4.98795L9.63477 4.90595L9.49219 4.89195C8.88281 4.83395 8.5625 4.81795 7.8457 4.80995C7.40625 4.80595 6.89844 4.80995 6.71875 4.81995Z" fill="#3F0D12"/>
<path d="M6.56639 6.16211C6.16796 6.18811 5.63475 6.23811 5.2871 6.28211C4.91991 6.33011 4.32225 6.43211 4.30467 6.44811C4.29491 6.46011 4.37303 6.94011 4.38866 6.95611C4.39257 6.96011 4.56053 6.93611 4.76366 6.90211C5.60546 6.76411 6.11522 6.71411 7.08007 6.67611C8.16405 6.63411 9.18358 6.69811 10.4082 6.88411C10.6367 6.91811 10.8281 6.94211 10.832 6.93811C10.8437 6.92611 10.9277 6.44011 10.9199 6.43011C10.9082 6.42011 10.3144 6.32611 9.96483 6.28211C9.6035 6.23411 9.11327 6.18811 8.68553 6.16011C8.32421 6.13611 6.95311 6.13811 6.56639 6.16211Z" fill="#3F0D12"/>
<path d="M6.85937 7.48214C6.00781 7.51814 4.92383 7.64214 4.32812 7.77014L4.28711 7.78014L4.33594 8.03414C4.36328 8.17614 4.38672 8.29214 4.38867 8.29414C4.39062 8.29814 4.45703 8.28614 4.53711 8.27214C5.86328 8.01214 7.75781 7.93214 9.24805 8.07214C9.41992 8.08814 9.56445 8.09614 9.56836 8.09214C9.57226 8.08814 9.58789 7.97414 9.60351 7.83814C9.63086 7.58014 9.62695 7.56214 9.55078 7.56014C9.5332 7.56014 9.36523 7.54614 9.17969 7.53014C8.42187 7.46414 7.6582 7.44814 6.85937 7.48214Z" fill="#3F0D12"/>
<path d="M6.86914 8.81195C5.81641 8.87395 5.21484 8.94195 4.375 9.09195C4.31055 9.10395 4.30078 9.11195 4.30078 9.15795C4.30273 9.24995 4.38867 9.62995 4.4082 9.62595C5.67773 9.40595 6.42383 9.33995 7.65039 9.33995C8.73828 9.33995 9.56836 9.40595 10.5508 9.56995C10.7051 9.59595 10.834 9.61595 10.8379 9.61395C10.8496 9.59995 10.9219 9.11595 10.9141 9.10195C10.9082 9.09195 10.8652 9.07995 10.8203 9.07395C10.7734 9.06595 10.5605 9.03395 10.3457 9.00195C9.43359 8.86195 8.85352 8.81795 7.82617 8.81195C7.36523 8.80795 6.93359 8.80795 6.86914 8.81195Z" fill="#3F0D12"/>
<path d="M18.5195 3.474C17.5273 3.512 16.3476 3.636 15.8007 3.762C15.7109 3.784 15.7089 3.786 15.7206 3.846C15.7538 4.034 15.8066 4.288 15.8124 4.294C15.8163 4.298 15.916 4.284 16.0312 4.262C16.4863 4.176 17.0839 4.1 17.7382 4.046C18.2675 4.004 19.7734 3.998 20.2578 4.036C20.8613 4.084 21.5214 4.162 21.9785 4.24C22.1035 4.262 22.2187 4.28 22.2324 4.28C22.2538 4.28 22.2714 4.21 22.3027 4.026C22.3261 3.884 22.3417 3.768 22.3398 3.766C22.3203 3.746 21.4453 3.618 21.0195 3.572C20.1445 3.478 19.2773 3.444 18.5195 3.474Z" fill="#3F0D12"/>
<path d="M18.1308 4.82217C17.7304 4.84217 17.1992 4.89017 16.7812 4.94217C16.3964 4.98817 15.7421 5.09817 15.7226 5.11617C15.7109 5.12817 15.7304 5.24817 15.7871 5.53617C15.8027 5.62017 15.8144 5.64017 15.8398 5.63217C15.9062 5.61017 16.4609 5.52017 16.7597 5.48017C18.0156 5.31817 19.5078 5.29217 20.707 5.41017C20.8613 5.42417 20.9902 5.43617 20.9921 5.43417C21.0019 5.42217 21.0488 4.91617 21.039 4.91017C21.0195 4.89817 20.3203 4.84017 19.955 4.82017C19.5273 4.79817 18.5976 4.79817 18.1308 4.82217Z" fill="#3F0D12"/>
<path d="M17.9922 6.16217C17.5742 6.18817 17.0527 6.23817 16.7129 6.28217C16.4179 6.32017 15.7246 6.43417 15.7129 6.44617C15.7051 6.45617 15.7988 6.94217 15.8125 6.95417C15.8183 6.96017 15.9531 6.94217 16.1113 6.91417C17.9551 6.58417 20.1582 6.58617 22.041 6.91817C22.1914 6.94417 22.2558 6.94817 22.2597 6.93217C22.2715 6.89417 22.3476 6.43417 22.3418 6.43017C22.334 6.42217 21.8203 6.34017 21.5371 6.30017C21.2734 6.26417 20.914 6.22417 20.4238 6.17817C20.125 6.15017 18.3398 6.13817 17.9922 6.16217Z" fill="#3F0D12"/>
</g>
<defs>
<clipPath id="clip0_570_48">
<rect width="25" height="18" fill="white" transform="translate(0.921875)"/>
</clipPath>
</defs>
</svg>
