<svg width="23" height="23" viewBox="0 0 23 23" fill="none" xmlns="http://www.w3.org/2000/svg">
<g clip-path="url(#clip0_570_7)">
<path d="M6.65293 1.82382C3.03672 2.62343 0.058402 3.28378 0.0404333 3.28827C0.00449576 3.30175 3.53985 6.47324 3.6252 6.50019C3.65215 6.50917 3.70606 6.38788 3.75098 6.22617C3.84082 5.88925 3.76895 5.92519 4.64942 5.79941C5.60625 5.66464 6.3295 5.61523 7.42559 5.61523C9.59532 5.61523 11.1451 5.89824 12.8252 6.59902C14.4469 7.27734 16.5133 8.65195 18.0766 10.0894L18.4225 10.4129L18.2607 10.9385C18.1709 11.226 18.1035 11.473 18.1125 11.482C18.126 11.491 18.7234 11.3877 19.4467 11.2484C20.1654 11.1092 20.7674 11.0059 20.7809 11.0193C20.8033 11.0418 19.7297 14.5502 19.6758 14.6086C19.6623 14.6266 19.4871 14.5906 19.285 14.5232C19.0828 14.4559 18.9076 14.4109 18.8986 14.4199C18.8762 14.4514 18.3371 16.1898 18.3461 16.2033C18.3506 16.2078 18.6336 16.1225 18.9705 16.0146L19.5859 15.8215L20.0486 16.3516C20.3182 16.666 20.5203 16.8592 20.5338 16.8322C20.6012 16.7109 21.0729 15.1342 21.0504 15.1027C21.0369 15.0803 20.8707 15.0174 20.6775 14.959C20.4844 14.9006 20.3092 14.8377 20.2912 14.8242C20.2553 14.7928 21.4412 10.925 21.5086 10.8666C21.5266 10.8486 21.8455 10.7812 22.2139 10.7139C22.5867 10.6465 22.9057 10.5746 22.9281 10.5566C22.9506 10.5342 22.7305 10.2781 22.4475 9.98163L21.9264 9.44706L21.9893 9.24941C22.0252 9.14159 22.0881 8.96191 22.1285 8.8496C22.2273 8.57109 22.2273 8.2207 22.1195 8.03202C21.9398 7.72206 21.2885 7.56034 20.6865 7.68163C20.5383 7.70859 20.3945 7.73554 20.3676 7.74003C20.3406 7.74452 18.7369 6.0914 16.8053 4.06542C14.8736 2.03945 13.2789 0.377338 13.2609 0.372846C13.243 0.368353 10.2691 1.01972 6.65293 1.82382ZM21.5131 8.35097C21.594 8.43183 21.5984 8.45429 21.54 8.66991C21.5041 8.80019 21.4682 8.91249 21.4592 8.92148C21.4502 8.93495 21.3244 8.81816 21.1852 8.66542C21.0414 8.51269 20.9426 8.37343 20.965 8.35097C20.9965 8.31952 21.1447 8.28808 21.3514 8.27011C21.3918 8.27011 21.4682 8.30605 21.5131 8.35097ZM21.2166 9.52343C21.2795 9.57284 21.3648 9.70312 21.4053 9.80644C21.4727 9.98613 21.4727 10.0131 21.4053 10.1793C21.2121 10.6555 20.5607 10.6734 20.3631 10.2107C20.2643 9.97265 20.3137 9.75702 20.5068 9.57734C20.6371 9.45605 20.6955 9.43359 20.8842 9.43359C21.0324 9.43359 21.1357 9.46054 21.2166 9.52343Z" fill="#3F0D12"/>
<path d="M6.17226 6.26218C5.61523 6.31608 4.5371 6.46433 4.50117 6.49128C4.49667 6.49577 4.29902 7.1112 4.06542 7.8569C3.83183 8.60261 3.62968 9.24948 3.6162 9.2944C3.59374 9.36628 3.62519 9.38425 3.8498 9.40671C4.34394 9.46511 5.72753 9.66276 6.24413 9.75261C9.7166 10.3501 11.9762 11.1092 15.4262 12.8342C16.0865 13.1667 16.6391 13.4272 16.648 13.4182C16.6615 13.4092 16.8682 12.7534 17.1152 11.9673L17.5644 10.5342L17.2275 10.2108C16.6211 9.63581 15.4262 8.71491 14.5996 8.19382C12.8836 7.10671 11.4371 6.56315 9.58632 6.3071C8.89452 6.21276 6.97187 6.18581 6.17226 6.26218Z" fill="#3F0D12"/>
<path d="M5.94314 10.4713C5.32322 10.5387 4.5865 10.8576 4.07439 11.2889L3.85876 11.4686L3.48591 11.1002L3.11306 10.7319L2.78064 11.1182C2.1113 11.8953 1.86873 12.4299 1.89568 13.0723C1.92263 13.7776 2.15623 14.092 3.18943 14.7973C3.93513 15.3094 4.5865 15.7856 5.38162 16.392L5.93416 16.8188L5.83083 16.9176C5.77244 16.9715 5.39958 17.2455 5.00427 17.5285C4.30798 18.0137 3.5533 18.6336 2.83005 19.303L2.49314 19.6174L2.94236 19.7207C3.18943 19.7746 3.42302 19.8375 3.45896 19.8555C3.4949 19.878 3.59822 20.0352 3.68357 20.2104L3.8363 20.5338L4.09236 20.0172C4.64939 18.8987 5.07615 18.4405 6.07791 17.861L6.29802 17.7352L6.12732 18.0002C5.52986 18.9301 5.34119 19.3075 5.21091 19.8285C5.12107 20.1969 4.98181 20.9875 5.00427 21.0145C5.01326 21.019 5.13455 20.983 5.2783 20.9336C5.42205 20.8842 5.5613 20.8438 5.58826 20.8438C5.61521 20.8438 5.71853 21.028 5.81736 21.2526C5.91619 21.4772 6.01052 21.6659 6.02849 21.6793C6.04197 21.6883 6.06892 21.5715 6.08689 21.4143C6.24412 19.9543 6.51365 19.1367 7.10662 18.3192C7.30427 18.0496 7.34021 18.0182 7.40759 18.0676C7.69958 18.2922 9.28083 19.7926 10.4443 20.9381C11.3023 21.7826 11.9088 22.3487 12.0301 22.4116C13.3328 23.0764 14.8691 22.1241 15.3228 20.3721C15.4621 19.8241 15.4576 19.0918 15.3004 18.6201C15.0982 17.9957 14.649 17.4342 14.1414 17.1782C13.7685 16.9895 12.1828 15.853 11.0418 14.95C8.88103 13.252 7.49294 11.8909 6.76521 10.7453C6.53611 10.3815 6.599 10.4039 5.94314 10.4713ZM6.46873 11.3248C6.7697 11.7651 7.27283 12.3491 7.87478 12.9555C8.16228 13.252 8.40037 13.4991 8.40037 13.508C8.40037 13.5125 8.35095 13.5215 8.28806 13.5215C8.14431 13.5215 7.62322 13.7192 7.44353 13.8405C7.36267 13.8944 7.20544 14.0291 7.08865 14.1414L6.87751 14.3436L6.53162 14.0336C6.34294 13.8629 5.75447 13.3149 5.22439 12.8073C4.1238 11.7561 4.16873 11.8774 4.73923 11.5225C5.14353 11.2709 5.41755 11.1496 5.76345 11.0733C6.20369 10.9744 6.23962 10.9879 6.46873 11.3248ZM4.35291 12.7489C5.00876 13.3823 5.77244 14.11 6.04646 14.3616L6.54509 14.8243L6.32947 15.26C6.20369 15.516 6.09587 15.7991 6.07791 15.9383L6.04197 16.1764L5.18845 15.534C4.72126 15.1791 4.02048 14.676 3.63865 14.411C2.79861 13.836 2.63689 13.6832 2.5156 13.3508C2.38982 13.0184 2.42126 12.7219 2.6324 12.3221C2.77166 12.0526 3.0906 11.5899 3.13552 11.5899C3.14451 11.5899 3.69255 12.111 4.35291 12.7489ZM10.2556 15.0623C10.8621 15.552 11.5135 16.0506 12.3086 16.6211C12.6679 16.8772 12.9689 17.0973 12.9824 17.1063C12.9959 17.1153 12.9554 17.1557 12.8926 17.1961C12.4119 17.5016 12.0256 18.2114 11.8998 19.002C11.8099 19.5905 12.0076 20.2149 12.4254 20.6416C13.1306 21.3694 13.9617 21.0235 14.2447 19.8825C14.2986 19.6713 14.2941 19.6578 14.1908 19.5725C14.1324 19.5276 13.773 19.2131 13.4002 18.8807L12.7129 18.2742L12.8162 18.0901C12.942 17.87 13.1801 17.6678 13.3957 17.6004C13.8808 17.4567 14.5906 18.135 14.8017 18.9346C15.0129 19.7612 14.7029 20.8662 14.0785 21.5041C13.4586 22.1375 12.6635 22.2409 12.1244 21.7512C11.6797 21.3514 11.4685 20.709 11.4236 19.6084C11.4011 18.9975 11.4191 18.701 11.5269 17.7981C11.5539 17.578 11.5539 17.5645 11.4551 17.5645C11.1092 17.5645 9.61775 16.6301 8.41384 15.6508L8.17576 15.4621L8.36892 15.2959C8.47224 15.2061 8.66091 15.0803 8.7822 15.0129C9.02927 14.8871 9.5863 14.694 9.71658 14.6895C9.76599 14.6895 10.0086 14.8557 10.2556 15.0623ZM8.42283 16.3785C9.29431 17.0614 10.2377 17.6813 10.7273 17.8969L10.916 17.9823L10.8845 18.4135C10.8396 18.9705 10.8396 19.7297 10.8845 20.2149L10.9205 20.5967L10.3455 20.0307C9.5863 19.2895 8.88552 18.6246 8.31052 18.108C8.04997 17.8744 7.749 17.6049 7.64119 17.5061L7.44353 17.3264L7.56033 16.8727C7.67712 16.401 7.83435 15.9922 7.89275 15.9922C7.91072 15.9922 8.1533 16.1674 8.42283 16.3785ZM13.1531 19.4242C13.4316 19.6668 13.6562 19.878 13.6562 19.8869C13.6562 19.8959 13.6248 19.9768 13.5888 20.0711C13.4136 20.4844 13.1441 20.5563 12.8566 20.2688C12.6724 20.0846 12.4927 19.7477 12.4568 19.5141C12.4433 19.4332 12.4478 19.2535 12.4658 19.1143C12.5017 18.8223 12.4388 18.7953 13.1531 19.4242Z" fill="#3F0D12"/>
</g>
<defs>
<clipPath id="clip0_570_7">
<rect width="23" height="23" fill="white"/>
</clipPath>
</defs>
</svg>
