<svg width="69" height="121" viewBox="0 0 69 121" fill="none" xmlns="http://www.w3.org/2000/svg">
<path d="M41.3253 0.711902C40.5552 1.15772 39.5013 2.21148 39.0149 3.06259C38.1637 4.64322 24.9499 40.6736 21.1397 51.9002C19.2752 57.3716 18.2213 61.9919 17.5728 67.666L17.3296 69.8951L21.3019 71.0704C23.5312 71.7189 26.6928 72.6916 28.3547 73.2185C30.0165 73.7453 31.6784 74.1506 32.0432 74.1506C32.6917 74.1506 35.0021 69.6924 36.8667 64.8289C38.2853 61.3029 50.2427 8.29084 50.2427 5.73751C50.2427 4.15688 48.9456 1.9683 47.4053 0.874018C45.7435 -0.220268 43.2709 -0.301326 41.3253 0.711902Z" fill="#242424"/>
<path d="M13.3977 75.0018C6.38546 79.6626 2.41319 90.646 4.60199 99.1166C4.96679 100.495 6.26386 103.696 7.47986 106.25C10.0335 111.559 10.5199 113.95 9.70919 117.355C8.97959 120.313 9.34439 120.638 12.3439 119.989C23.4095 117.517 32.6511 105.601 34.4345 91.4566C35.1236 86.1068 33.5023 78.9736 31.3135 77.8794C30.9081 77.6767 27.9492 76.7445 24.7065 75.8124C21.4639 74.8802 18.3023 73.9075 17.6537 73.7049C16.0324 73.178 16.154 73.1375 13.3977 75.0018ZM17.7348 79.6626C19.1535 80.6759 18.9508 82.6213 17.1673 84.3235C15.3839 86.0257 14.2895 88.0927 13.9247 90.4029C13.6004 92.3888 12.5465 93.6047 11.1279 93.6047C9.83079 93.6047 8.49319 92.1456 8.49319 90.7271C8.49319 88.7412 9.99293 84.7693 11.5332 82.7023C14.1273 79.1358 15.7892 78.2847 17.7348 79.6626Z" fill="#242424"/>
<path d="M40.6882 10.812C39.7043 11.736 38.2246 16.123 33.1445 33.2786C29.0531 47.1581 25.6083 59.7189 25.6412 60.7316C25.6714 61.6633 27.5889 63.2636 28.6827 63.2281C30.7488 63.161 31.2426 62.1312 33.8438 52.3146C36.2295 43.3566 41.0562 27.1419 43.8942 18.3719C44.6334 16.1582 45.2026 13.7067 45.179 12.9775C45.0961 10.4256 42.5423 9.21086 40.6882 10.812Z" fill="#A71D31"/>
<path d="M14.3865 24.8754C13.4542 25.4023 5.59078 30.4279 2.18598 32.6975C0.0782493 34.1566 -0.448684 35.2914 0.361983 36.8315C1.53745 39.0606 8.87398 45.0184 13.2516 47.288C16.778 49.0713 19.0073 48.2202 18.7641 45.1805C18.683 43.9241 18.3993 43.4377 17.3049 42.7893C14.6297 41.1681 10.09 38.1284 8.95505 37.1962L7.82012 36.2641L11.7924 33.6702C17.467 29.9415 18.4398 29.0094 18.4398 27.3882C18.4398 26.1318 17.5886 24.7538 16.8185 24.7538C16.6158 24.7538 16.251 24.6728 15.9268 24.5512C15.643 24.4296 14.954 24.5917 14.3865 24.8754Z" fill="#A71D31"/>
<path d="M52.0014 25.4024C50.6233 26.1319 50.1369 27.7936 50.907 29.1716C51.2313 29.739 53.2174 31.198 55.4468 32.4544C57.595 33.7108 59.5406 34.8862 59.7838 35.1293C60.027 35.3725 58.4868 36.8316 55.2846 39.3444C52.2041 41.7761 50.3396 43.5189 50.1774 44.1673C49.61 46.437 51.4745 48.3013 53.7849 47.7339C55.2441 47.3691 67.1204 37.7637 68.0121 36.2642C69.3902 33.8324 68.2553 32.7787 57.9598 27.0235C55.7305 25.7671 53.7444 24.7539 53.5012 24.7539C53.2985 24.7944 52.6094 25.0376 52.0014 25.4024Z" fill="#A71D31"/>
</svg>
