<svg width="162" height="162" viewBox="0 0 162 162" fill="none" xmlns="http://www.w3.org/2000/svg">
<g clip-path="url(#clip0_202_514)">
<path opacity="0.971" fill-rule="evenodd" clip-rule="evenodd" d="M80.6448 0.0457714C85.8506 -0.274025 88.8645 2.10161 89.5951 7.26404C91.0108 17.4975 92.746 27.6397 94.7553 37.7361C113.661 34.7209 132.703 33.8986 151.837 35.2691C156.038 35.3148 159.143 37.1422 161.153 40.797C162.34 44.7717 161.29 48.0153 157.91 50.528C139.781 61.4468 121.972 72.7767 104.436 84.6092C106.948 95.4823 109.87 106.264 113.204 116.954C116.446 126.503 119.734 136.051 123.113 145.508C124.483 149.574 124.209 153.503 122.337 157.294C117.999 162.457 112.884 163.416 106.902 160.173C104.756 158.665 102.747 157.02 100.829 155.239C86.9466 142.218 72.9273 129.335 58.7711 116.589C44.1126 127.782 29.3171 138.883 14.4302 149.848C12.3296 150.99 10.092 151.812 7.76308 152.315C3.7902 151.858 1.23295 149.665 0.136987 145.827C-0.228335 142.721 -8.65012e-06 139.66 0.913296 136.69C7.35209 119.513 15.0238 102.883 23.9286 86.8021C17.8551 81.5483 11.6903 76.3402 5.47982 71.1777C2.37458 66.061 3.69887 62.5432 9.49836 60.7158C21.554 56.1473 33.7009 51.9442 46.0305 48.1524C55.2549 33.4417 64.8446 18.9138 74.7539 4.6143C76.1239 2.23867 78.1332 0.731051 80.6448 0.0457714ZM54.7982 45.3199C59.0451 38.193 63.566 31.2031 68.3152 24.396C69.6851 22.3859 71.3747 20.6041 73.247 19.0508C74.2516 19.6448 74.7539 20.5128 74.7539 21.7006L77.6309 40.3402C69.9591 41.9392 62.3787 43.5838 54.7982 45.3199ZM121.743 45.3199C125.168 45.1828 128.593 45.3656 132.018 45.9138C132.429 46.1879 132.703 46.5534 132.794 47.0559C132.657 47.8326 132.338 48.5178 131.835 49.1574C121.515 56.2843 111.149 63.2742 100.646 70.0813C98.9565 62.3605 97.3582 54.6397 95.8969 46.8732C104.528 46.0965 113.158 45.594 121.743 45.3199ZM77.6309 48.7463H79.5488C81.2841 59.1625 83.4303 69.5331 86.0332 79.7666C75.3019 86.8478 64.6619 94.0204 54.0676 101.284C47.4005 95.7107 40.6877 90.1828 33.8836 84.7006C33.2443 84.2894 33.0616 83.6955 33.2899 82.9645C38.4044 73.1422 43.7929 63.5026 49.4554 54.0458C58.8168 52.0813 68.2238 50.2996 77.6309 48.7463ZM39.9571 56.0102C40.4137 55.9189 40.779 56.0559 41.0987 56.3757C36.5778 64.0965 32.1026 71.863 27.5818 79.5838C22.0106 75.3808 16.6221 70.9036 11.4163 66.2437C11.6446 65.7869 11.8729 65.33 12.1926 64.9189C21.28 61.4468 30.55 58.4772 39.9571 56.0102ZM28.9061 91.0051C35.1622 95.8935 41.2357 101.056 47.1722 106.447C37.3998 113.574 27.4904 120.564 17.4898 127.371C16.4395 128.01 15.2978 128.284 14.0649 128.147C13.1059 126.32 13.1972 124.492 14.2475 122.619C19.1337 112.066 24.0199 101.558 28.9061 91.0051ZM89.0472 94.8427C93.3397 110.056 97.9062 125.223 102.747 140.345C102.062 142.31 100.92 142.584 99.3218 141.122C88.1795 131.208 76.9915 121.34 65.8492 111.426C73.6123 105.944 81.3754 100.416 89.0472 94.8427Z" fill="#FE9E00"/>
</g>
<defs>
<clipPath id="clip0_202_514">
<rect width="162" height="162" fill="white"/>
</clipPath>
</defs>
</svg>
