<svg width="42" height="42" viewBox="0 0 42 42" fill="none" xmlns="http://www.w3.org/2000/svg">
<g clip-path="url(#clip0_406_44)">
<path d="M38.5 12.25H26.25V8.75H38.5V12.25ZM41.5205 29.75C40.747 32.0198 37.9697 35 32.5938 35C27.2143 35 22.8568 31.9743 22.8568 25.0688C22.8568 18.2262 26.9255 14.7087 32.4222 14.7087C37.8158 14.7087 41.1092 17.8273 41.8285 22.4543C41.965 23.3398 42.0192 24.5332 41.9948 26.1992H27.9475C28.175 31.8185 34.0428 31.9953 35.9765 29.75H41.5205ZM28.07 22.75H36.7587C36.575 20.0428 34.7707 18.8668 32.424 18.8668C29.8585 18.8668 28.4393 20.2107 28.07 22.75ZM11.3155 34.979H0V8.78675H12.1678C21.7507 8.9285 21.9328 18.3138 16.9277 20.8722C22.9845 23.0773 23.1875 34.979 11.3155 34.979ZM5.25 19.25H11.522C15.911 19.25 16.6075 14 10.976 14H5.25V19.25ZM11.1842 24.5H5.25V29.778H11.0968C16.443 29.778 16.1157 24.5 11.1842 24.5Z" fill="white"/>
</g>
<defs>
<clipPath id="clip0_406_44">
<rect width="42" height="42" fill="white"/>
</clipPath>
</defs>
</svg>
