<svg width="47" height="47" viewBox="0 0 47 47" fill="none" xmlns="http://www.w3.org/2000/svg">
<path d="M46.9981 7.79583C46.9974 7.75438 46.995 7.71322 46.9919 7.67192C46.9896 7.64215 46.9876 7.61253 46.9842 7.58304C46.9796 7.54388 46.9731 7.50485 46.9662 7.46569C46.9608 7.43478 46.9557 7.40373 46.949 7.37325C46.941 7.33736 46.9314 7.3019 46.9215 7.26629C46.9126 7.23368 46.9039 7.20106 46.8933 7.16902C46.8828 7.13669 46.8703 7.10478 46.8581 7.07274C46.8452 7.0387 46.8322 7.00452 46.8176 6.97133C46.8047 6.94242 46.7903 6.91408 46.7762 6.88545C46.7589 6.85027 46.7412 6.81538 46.7218 6.78148C46.7072 6.75542 46.6909 6.72992 46.675 6.70429C46.6532 6.66954 46.631 6.63521 46.6073 6.60174C46.5999 6.59134 46.5941 6.58038 46.5864 6.56998C46.5754 6.55488 46.5629 6.54178 46.5515 6.52711C46.5279 6.49677 46.5038 6.46687 46.4787 6.43781C46.4558 6.41118 46.4323 6.38554 46.4084 6.36033C46.3856 6.3364 46.3624 6.31305 46.3384 6.29026C46.3107 6.26363 46.2823 6.23785 46.2533 6.21292C46.2306 6.19341 46.2074 6.17447 46.1839 6.1561C46.1529 6.1316 46.1215 6.10796 46.0893 6.08531C46.0646 6.06779 46.0391 6.05127 46.0136 6.03489C45.982 6.01467 45.95 5.99501 45.9176 5.9765C45.8884 5.95998 45.8588 5.9446 45.8288 5.92936C45.7987 5.91397 45.7683 5.89916 45.7374 5.8852C45.7037 5.87011 45.6693 5.85615 45.6346 5.84276C45.6058 5.83165 45.5772 5.82097 45.548 5.81114C45.5111 5.79861 45.4738 5.7875 45.436 5.77696C45.4068 5.76884 45.3776 5.76115 45.3482 5.75432C45.3111 5.74563 45.2738 5.73822 45.2362 5.73153C45.2035 5.72569 45.1707 5.7207 45.1377 5.71643C45.1033 5.71202 45.069 5.70831 45.0341 5.70561C44.9957 5.70247 44.9574 5.70077 44.9188 5.69977C44.9002 5.69906 44.8823 5.69678 44.8636 5.69678H2.13636C2.11756 5.69678 2.09933 5.6992 2.08053 5.69963C2.04236 5.70062 2.00434 5.70247 1.96645 5.70547C1.93113 5.70831 1.89638 5.71202 1.86163 5.71643C1.82901 5.7207 1.79682 5.72555 1.76449 5.73124C1.72632 5.73794 1.68844 5.74563 1.65084 5.75432C1.62193 5.76101 1.59344 5.76856 1.56496 5.77639C1.52665 5.78707 1.48862 5.79833 1.45116 5.81114C1.42268 5.82069 1.39462 5.83137 1.36656 5.84205C1.33124 5.85572 1.2962 5.86982 1.26188 5.88535C1.23168 5.89888 1.20192 5.91355 1.17229 5.9285C1.14182 5.94403 1.11148 5.95983 1.08185 5.97664C1.04995 5.99473 1.01876 6.0141 0.98757 6.0339C0.961364 6.0507 0.9353 6.06765 0.909948 6.0856C0.87833 6.10781 0.847424 6.13103 0.817088 6.1551C0.793018 6.17404 0.769376 6.19327 0.746161 6.21321C0.717533 6.2377 0.689618 6.2632 0.66213 6.28955C0.637918 6.31276 0.614418 6.3364 0.591203 6.36062C0.567418 6.38554 0.544203 6.41104 0.521558 6.43738C0.496348 6.46658 0.472136 6.49663 0.448494 6.52711C0.437242 6.54178 0.424709 6.55488 0.413742 6.56984C0.406194 6.58024 0.400212 6.59106 0.392806 6.6016C0.369164 6.63507 0.346945 6.66939 0.325297 6.70414C0.309203 6.72978 0.293109 6.75527 0.278297 6.78134C0.25907 6.81538 0.241409 6.85027 0.224033 6.88531C0.209933 6.91394 0.195406 6.94228 0.182588 6.97119C0.167918 7.00437 0.154958 7.03856 0.141997 7.0726C0.129748 7.10464 0.117358 7.1364 0.106818 7.16887C0.0962788 7.20092 0.0875909 7.23354 0.0786182 7.26615C0.0689333 7.30176 0.0591061 7.33722 0.0511303 7.37311C0.0444364 7.40359 0.0393091 7.43464 0.033897 7.46554C0.0270606 7.50457 0.0205091 7.54359 0.0159515 7.5829C0.0125333 7.61224 0.0105394 7.64201 0.00826061 7.67177C0.00512727 7.71308 0.00270606 7.75438 0.00199394 7.79568C0.00170909 7.80822 0 7.82047 0 7.83314V39.1665C0 40.3463 0.956521 41.3028 2.13636 41.3028H44.8636C46.0435 41.3028 47 40.3463 47 39.1665V7.83314C47 7.82047 46.9984 7.80822 46.9981 7.79583ZM38.3379 9.9695L23.5 20.8506L8.66224 9.9695H38.3379ZM4.27273 37.0301V12.0492L22.2367 25.2227C22.6127 25.4984 23.0563 25.6363 23.5001 25.6363C23.9438 25.6363 24.3876 25.4984 24.7636 25.2227L42.7273 12.0492V37.0301H4.27273Z" fill="white"/>
</svg>
