<svg width="40" height="33" viewBox="0 0 40 33" fill="none" xmlns="http://www.w3.org/2000/svg">
<g clip-path="url(#clip0_219_26)">
<path d="M40.0391 1.59968C40.0385 1.56036 40.0365 1.52131 40.0338 1.48212C40.0319 1.45387 40.0302 1.42577 40.0272 1.39779C40.0234 1.36063 40.0178 1.3236 40.0119 1.28644C40.0073 1.25712 40.0029 1.22766 39.9972 1.19874C39.9904 1.16468 39.9822 1.13104 39.9738 1.09725C39.9661 1.06631 39.9587 1.03536 39.9497 1.00496C39.9408 0.974279 39.9301 0.944009 39.9197 0.913603C39.9087 0.881306 39.8976 0.848874 39.8851 0.817387C39.8742 0.789955 39.8619 0.763063 39.8499 0.735901C39.8351 0.702522 39.82 0.669414 39.8035 0.637252C39.791 0.612523 39.7772 0.588333 39.7635 0.564009C39.745 0.531036 39.726 0.498468 39.7059 0.466712C39.6995 0.456847 39.6946 0.446441 39.688 0.436576C39.6786 0.422252 39.668 0.40982 39.6582 0.395901C39.6381 0.367117 39.6176 0.338738 39.5962 0.311171C39.5766 0.285901 39.5566 0.261576 39.5362 0.237658C39.5167 0.214955 39.4969 0.192793 39.4765 0.171171C39.4529 0.145901 39.4287 0.121441 39.4039 0.0977926C39.3846 0.0792791 39.3648 0.0613059 39.3448 0.0438734C39.3183 0.0206302 39.2916 -0.00180197 39.2641 -0.0232885C39.243 -0.0399101 39.2212 -0.0555858 39.1995 -0.0711263C39.1725 -0.0903155 39.1453 -0.108964 39.1176 -0.126532C39.0927 -0.142207 39.0675 -0.156802 39.042 -0.171262C39.0162 -0.185856 38.9903 -0.19991 38.964 -0.213153C38.9352 -0.227478 38.9059 -0.240721 38.8763 -0.253424C38.8518 -0.263964 38.8273 -0.274099 38.8024 -0.283424C38.771 -0.295315 38.7392 -0.305856 38.707 -0.315856C38.6821 -0.323559 38.6572 -0.330856 38.632 -0.337343C38.6005 -0.345586 38.5686 -0.352613 38.5366 -0.358964C38.5086 -0.364505 38.4807 -0.369234 38.4525 -0.373289C38.4232 -0.377478 38.394 -0.380991 38.3642 -0.383559C38.3314 -0.386532 38.2988 -0.388153 38.2658 -0.389099C38.25 -0.389775 38.2347 -0.391937 38.2188 -0.391937H1.78111C1.76508 -0.391937 1.74954 -0.38964 1.7335 -0.389234C1.70095 -0.388289 1.66852 -0.386532 1.63621 -0.383694C1.60609 -0.380991 1.57646 -0.377478 1.54682 -0.373289C1.51901 -0.369234 1.49156 -0.36464 1.46398 -0.359234C1.43143 -0.352883 1.39913 -0.345586 1.36706 -0.337343C1.3424 -0.330991 1.31811 -0.323829 1.29382 -0.316397C1.26115 -0.306262 1.22872 -0.295586 1.19677 -0.283424C1.17248 -0.274369 1.14856 -0.264234 1.12463 -0.254099C1.09451 -0.241126 1.06463 -0.227748 1.03536 -0.213018C1.00961 -0.20018 0.984222 -0.186262 0.958958 -0.172073C0.932966 -0.157343 0.907095 -0.142343 0.881832 -0.126397C0.854625 -0.109234 0.828025 -0.090856 0.801426 -0.0720723C0.779077 -0.0561263 0.75685 -0.0400454 0.73523 -0.0230183C0.708267 -0.00193725 0.68191 0.0200896 0.656039 0.0429275C0.635513 0.0609005 0.61535 0.0791438 0.595553 0.0980628C0.571139 0.121306 0.547333 0.145495 0.523892 0.170495C0.503244 0.192522 0.483203 0.214955 0.463405 0.237928C0.443121 0.261576 0.423324 0.285766 0.404012 0.310766C0.382513 0.338468 0.361865 0.366982 0.341703 0.395901C0.332108 0.40982 0.321419 0.422252 0.312067 0.436441C0.30563 0.446306 0.300528 0.456576 0.294213 0.466576C0.27405 0.498333 0.255103 0.530901 0.236641 0.563874C0.222916 0.588198 0.209191 0.612387 0.19656 0.637117C0.180163 0.669415 0.165102 0.702523 0.150284 0.735766C0.138259 0.762928 0.12587 0.78982 0.114939 0.817252C0.102429 0.848739 0.091376 0.881171 0.0803232 0.913468C0.0698777 0.943874 0.0593108 0.974009 0.0503228 1.00482C0.0413348 1.03522 0.0339258 1.06617 0.0262739 1.09712C0.0180147 1.1309 0.00963403 1.16455 0.00283232 1.1986C-0.00287626 1.22752 -0.00724878 1.25698 -0.0118642 1.28631C-0.0176943 1.32333 -0.0232814 1.36036 -0.0271681 1.39766C-0.0300831 1.4255 -0.0317835 1.45374 -0.0337269 1.48198C-0.036399 1.52117 -0.0384638 1.56036 -0.0390711 1.59955C-0.039314 1.61144 -0.0407715 1.62306 -0.0407715 1.63509V31.3648C-0.0407715 32.4843 0.774948 33.3919 1.78111 33.3919H38.2188C39.225 33.3919 40.0407 32.4843 40.0407 31.3648V1.63509C40.0407 1.62306 40.0394 1.61144 40.0391 1.59968ZM32.6537 3.66212L20 13.9863L7.34637 3.66212H32.6537ZM3.603 29.3378V5.63536L18.9226 18.1347C19.2433 18.3963 19.6216 18.5271 20.0001 18.5271C20.3784 18.5271 20.7569 18.3963 21.0776 18.1347L36.3969 5.63536V29.3378H3.603Z" fill="white"/>
</g>
<defs>
<clipPath id="clip0_219_26">
<rect width="40" height="33" fill="white"/>
</clipPath>
</defs>
</svg>
