<svg width="44" height="44" viewBox="0 0 44 44" fill="none" xmlns="http://www.w3.org/2000/svg">
<path d="M34.1127 2H9.88732C5.53128 2 2 5.53128 2 9.88732V34.1127C2 38.4687 5.53128 42 9.88732 42H34.1127C38.4687 42 42 38.4687 42 34.1127V9.88732C42 5.53128 38.4687 2 34.1127 2Z" stroke="#FFFDFD" stroke-width="3"/>
<path d="M35.4112 14.6393C34.0528 12.312 32.2104 10.4695 29.8833 9.11129C27.5559 7.75306 25.015 7.07411 22.2589 7.07411C19.5032 7.07411 16.9615 7.75327 14.6345 9.11129C12.3072 10.4694 10.4648 12.312 9.10652 14.6393C7.74842 16.9665 7.06934 19.5079 7.06934 22.2633C7.06934 25.5731 8.035 28.5495 9.96682 31.193C11.8984 33.8367 14.3938 35.6661 17.4527 36.6813C17.8087 36.7474 18.0723 36.7009 18.2437 36.543C18.4152 36.3849 18.5008 36.187 18.5008 35.9499C18.5008 35.9103 18.4974 35.5545 18.4908 34.8819C18.484 34.2093 18.4808 33.6226 18.4808 33.122L18.0259 33.2007C17.7359 33.2538 17.37 33.2763 16.9282 33.2699C16.4867 33.2638 16.0283 33.2175 15.5537 33.1315C15.0789 33.0462 14.6373 32.8484 14.2285 32.5385C13.8199 32.2287 13.5299 31.8231 13.3584 31.3224L13.1607 30.8673C13.0288 30.5643 12.8213 30.2277 12.5377 29.8587C12.2542 29.4894 11.9675 29.2391 11.6774 29.1072L11.539 29.0081C11.4467 28.9422 11.3611 28.8628 11.2819 28.7706C11.2028 28.6784 11.1436 28.5861 11.104 28.4937C11.0644 28.4012 11.0972 28.3254 11.2029 28.2659C11.3085 28.2063 11.4994 28.1775 11.7764 28.1775L12.1718 28.2366C12.4356 28.2894 12.7618 28.4473 13.1509 28.7111C13.5398 28.9748 13.8595 29.3176 14.11 29.7393C14.4135 30.28 14.779 30.6921 15.2077 30.9756C15.6361 31.2591 16.068 31.4007 16.5031 31.4007C16.9381 31.4007 17.3138 31.3677 17.6304 31.3021C17.9467 31.2361 18.2434 31.137 18.5204 31.0053C18.639 30.1215 18.9621 29.4425 19.4894 28.9679C18.7379 28.889 18.0623 28.77 17.4622 28.6119C16.8624 28.4535 16.2426 28.1965 15.6032 27.8402C14.9635 27.4843 14.4328 27.0424 14.011 26.5153C13.5891 25.9878 13.2429 25.2954 12.9728 24.4385C12.7026 23.5813 12.5674 22.5925 12.5674 21.4718C12.5674 19.8761 13.0883 18.5182 14.13 17.3974C13.642 16.1977 13.6881 14.8529 14.2683 13.3629C14.6507 13.2441 15.2178 13.3333 15.9693 13.6298C16.7209 13.9265 17.2712 14.1807 17.6207 14.3914C17.9703 14.6021 18.2504 14.7806 18.4614 14.9254C19.6878 14.5827 20.9535 14.4113 22.2588 14.4113C23.564 14.4113 24.83 14.5827 26.0565 14.9254L26.8081 14.4509C27.322 14.1344 27.9289 13.8442 28.6273 13.5805C29.3261 13.3169 29.8605 13.2443 30.2299 13.3631C30.823 14.8531 30.8758 16.1979 30.3878 17.3976C31.4293 18.5184 31.9505 19.8767 31.9505 21.472C31.9505 22.5927 31.8148 23.5847 31.545 24.4484C31.2749 25.3123 30.9257 26.0041 30.4973 26.5252C30.0684 27.0462 29.5343 27.4846 28.8949 27.8404C28.2554 28.1964 27.6354 28.4534 27.0356 28.6118C26.4356 28.7702 25.76 28.8892 25.0085 28.9683C25.6939 29.5614 26.0366 30.4976 26.0366 31.7765V35.9493C26.0366 36.1864 26.1191 36.3843 26.2841 36.5425C26.4489 36.7003 26.7091 36.7468 27.0652 36.6807C30.1245 35.6656 32.6199 33.8362 34.5514 31.1924C36.4827 28.5489 37.4488 25.5726 37.4488 22.2627C37.4481 19.5077 36.7686 16.9665 35.4112 14.6393Z" fill="white"/>
</svg>
