<svg width="41" height="41" viewBox="0 0 41 41" fill="none" xmlns="http://www.w3.org/2000/svg">
<g clip-path="url(#clip0_406_41)">
<path d="M20.5 0C9.17884 0 0 9.17884 0 20.5C0 31.8224 9.17884 41 20.5 41C31.8212 41 41 31.8224 41 20.5C40.9999 9.17884 31.821 0 20.5 0ZM26.2424 36.1171C26.1245 34.5129 25.9926 32.5257 25.9849 31.7211C25.9336 31.1035 25.8669 29.5327 24.3757 28.5296C30.2963 28.0337 33.1137 24.7614 33.3162 20.4372C33.4854 17.9747 32.5064 15.8093 30.7679 14.0618C30.8563 12.1925 30.7114 9.97711 30.5911 9.00348C29.2561 8.61912 26.1426 10.2629 25.2726 10.9664C23.4378 10.2539 18.9471 10.0041 16.218 10.9664C14.2833 9.6057 12.0809 8.76521 10.8804 8.99968C9.77205 11.4558 10.4845 13.7775 10.7009 14.0542C9.27355 15.3585 7.28252 16.9639 7.82324 20.3272C8.69061 25.2587 12.1602 27.9186 17.7464 28.5694C16.555 28.8129 16.3537 29.7021 16.2538 30.0877C12.5022 31.6354 11.43 29.1319 10.9558 28.4797C9.38122 26.5309 7.96792 27.096 7.8808 27.1267C7.79622 27.1574 7.73218 27.2804 7.74119 27.3393C7.82057 27.7596 8.67781 28.1863 8.72003 28.2208C9.88211 29.0869 10.3126 30.6513 10.5778 31.0972C12.2447 33.8378 16.1192 32.7013 16.1564 32.7244C16.1589 32.964 16.1295 34.9807 16.1064 36.5503C9.04176 34.6206 3.84371 28.1759 3.84371 20.5C3.84371 11.3006 11.3006 3.84386 20.4999 3.84386C29.6991 3.84386 37.1561 11.3006 37.1561 20.5C37.1561 27.6788 32.6077 33.7762 26.2424 36.1171Z" fill="white"/>
</g>
<defs>
<clipPath id="clip0_406_41">
<rect width="41" height="41" fill="white"/>
</clipPath>
</defs>
</svg>
