<svg width="94" height="94" viewBox="0 0 94 94" fill="none" xmlns="http://www.w3.org/2000/svg">
<path d="M46.9594 93.7625L19.8317 86.2317L13.7864 18.4265H80.2138L74.1621 86.221L46.9594 93.7625Z" fill="#264DE4"/>
<path d="M68.9811 81.9041L74.1527 23.9706H47V87.9981L68.9811 81.9041Z" fill="#2965F1"/>
<path d="M27.645 49.1186L28.3904 57.4345H47V49.1186H27.645Z" fill="#EBEBEB"/>
<path d="M26.1475 32.2867L26.9034 40.6028H47.0001V32.2867H26.1475Z" fill="#EBEBEB"/>
<path d="M47.0001 70.7162L46.9636 70.7259L37.702 68.225L37.1099 61.5926H28.762L29.927 74.65L46.9618 79.3789L47.0001 79.3683V70.7162Z" fill="#EBEBEB"/>
<path d="M29.4197 0H39.4918V4.21199H33.6317V8.42397H39.4918V12.636H29.4197V0Z" fill="black"/>
<path d="M41.5061 0H51.5782V3.6626H45.7181V4.39512H51.5782V12.8191H41.5061V8.97336H47.3663V8.24084H41.5061V0Z" fill="black"/>
<path d="M53.5928 0H63.6649V3.6626H57.8048V4.39512H63.6649V12.8191H53.5928V8.97336H59.4529V8.24084H53.5928V0Z" fill="black"/>
<path d="M66.3019 49.1185L67.8032 32.2867H46.9714V40.6028H58.6896L57.9329 49.1185H46.9714V57.4345H57.2117L56.2464 68.2197L46.9714 70.7231V79.3749L64.0197 74.65L64.1448 73.245L66.099 51.3516L66.3019 49.1185Z" fill="white"/>
</svg>
