<svg width="92" height="92" viewBox="0 0 92 92" fill="none" xmlns="http://www.w3.org/2000/svg">
<path d="M61.3333 61.3333C69.8017 61.3333 76.6667 54.4684 76.6667 46C76.6667 37.5316 69.8017 30.6667 61.3333 30.6667C52.865 30.6667 46 37.5316 46 46C46 54.4684 52.865 61.3333 61.3333 61.3333Z" fill="#19BCFE"/>
<path fill-rule="evenodd" clip-rule="evenodd" d="M30.6668 92C39.1352 92 46.0002 85.135 46.0002 76.6667C46.0002 74.355 46.0002 69.2438 46.0002 61.3333C39.1118 61.3333 34.0007 61.3333 30.6668 61.3333C22.1985 61.3333 15.3335 68.1983 15.3335 76.6667C15.3335 85.135 22.1985 92 30.6668 92Z" fill="#09CF83"/>
<path fill-rule="evenodd" clip-rule="evenodd" d="M30.6668 61.3333C33.4896 61.3333 38.6007 61.3333 46.0002 61.3333V30.6667C38.6007 30.6667 33.4896 30.6667 30.6668 30.6667C22.1985 30.6667 15.3335 37.5316 15.3335 46C15.3335 54.4684 22.1985 61.3333 30.6668 61.3333Z" fill="#A259FF"/>
<path fill-rule="evenodd" clip-rule="evenodd" d="M30.6668 30.6667C33.4896 30.6667 38.6007 30.6667 46.0002 30.6667V0C38.6007 0 33.4896 0 30.6668 0C22.1985 0 15.3335 6.86497 15.3335 15.3333C15.3335 23.8017 22.1985 30.6667 30.6668 30.6667Z" fill="#F24E1E"/>
<path fill-rule="evenodd" clip-rule="evenodd" d="M61.3333 30.6667H46V0H61.3333C69.8017 0 76.6667 6.86497 76.6667 15.3333C76.6667 23.8017 69.8017 30.6667 61.3333 30.6667Z" fill="#FF7262"/>
</svg>
