<svg width="94" height="94" viewBox="0 0 94 94" fill="none" xmlns="http://www.w3.org/2000/svg">
<path d="M80.2138 18.4265L74.1621 86.221L46.9594 93.7625L19.8317 86.2317L13.7864 18.4265H80.2138Z" fill="#E44D26"/>
<path d="M47 87.9981L68.9811 81.9041L74.1527 23.9706H47V87.9981Z" fill="#F16529"/>
<path d="M35.2358 40.6028H47.0001V32.2867H26.1475L26.3465 34.5178L28.3904 57.4345H47.0001V49.1185H35.9958L35.2358 40.6028Z" fill="#EBEBEB"/>
<path d="M37.1099 61.5926H28.762L29.927 74.65L46.9618 79.3789L47.0001 79.3683V70.7162L46.9636 70.7259L37.702 68.225L37.1099 61.5926Z" fill="#EBEBEB"/>
<path d="M19.9668 0H24.1929V4.17536H28.0588V0H32.285V12.644H28.0589V8.41006H24.1931V12.644H19.967V0H19.9668Z" fill="black"/>
<path d="M37.8425 4.19294H34.1221V0H45.7911V4.19294H42.069V12.644H37.8427V4.19294H37.8425Z" fill="black"/>
<path d="M47.6431 0H52.0497L54.7604 4.44273L57.4684 0H61.8767V12.644H57.668V6.37695L54.7604 10.8726H54.6877L51.7781 6.37695V12.644H47.6431V0Z" fill="black"/>
<path d="M63.98 0H68.2073V8.46463H74.1505V12.644H63.98V0Z" fill="black"/>
<path d="M46.9714 57.4345H57.2117L56.2464 68.2197L46.9714 70.7231V79.3749L64.0197 74.65L64.1448 73.245L66.099 51.3516L66.3019 49.1186H46.9714V57.4345Z" fill="white"/>
<path d="M46.9714 40.5825V40.6028H67.0586L67.2254 38.7336L67.6043 34.5178L67.8032 32.2867H46.9714V40.5825Z" fill="white"/>
</svg>
