<svg width="93" height="92" viewBox="0 0 93 92" fill="none" xmlns="http://www.w3.org/2000/svg">
<g clip-path="url(#clip0_202_486)">
<path d="M92.9728 0H0.0272461C0.0121985 0 0 0.0120673 0 0.0269531V91.973C0 91.9879 0.0121985 92 0.0272461 92H92.9728C92.9878 92 93 91.9879 93 91.973V0.0269531C93 0.0120673 92.9878 0 92.9728 0Z" fill="#F7DF1E"/>
<path d="M58.8516 66.4844C60.668 69.5391 63.2109 71.6953 67.3887 71.6953C71.0215 71.6953 73.3828 69.8984 73.3828 67.3828C73.3828 64.5078 71.0215 63.4297 67.0254 61.6328L64.8457 60.7344C58.4883 58.0391 54.3105 54.8047 54.3105 47.7969C54.3105 41.3281 59.2148 36.2969 67.0254 36.2969C72.6562 36.2969 76.6523 38.2734 79.377 43.3047L72.6562 47.6172C71.2031 44.9219 69.5684 43.8438 67.0254 43.8438C64.4824 43.8438 62.8477 45.4609 62.8477 47.6172C62.8477 50.1328 64.4824 51.2109 68.2969 52.8281L70.4766 53.7266C77.9238 56.9609 82.1016 60.0156 82.1016 67.3828C82.1016 75.1094 75.9258 79.4219 67.5703 79.4219C59.3965 79.4219 54.1289 75.6484 51.5859 70.6172L58.8516 66.4844ZM27.9727 67.2031C29.4258 69.5391 30.5156 71.6953 33.6035 71.6953C36.5098 71.6953 38.3262 70.6172 38.3262 66.3047V36.4766H47.0449V65.9453C47.0449 74.9297 41.7773 78.8828 33.9668 78.8828C26.8828 78.8828 22.8867 75.2891 20.8887 70.9766L27.9727 67.2031Z" fill="black"/>
</g>
<defs>
<clipPath id="clip0_202_486">
<rect width="93" height="92" fill="white"/>
</clipPath>
</defs>
</svg>
